<svg xmlns="http://www.w3.org/2000/svg" width="160px" height="29px" viewBox="0 0 160 29">
    <title>ShopRunner</title>
    <path d="M2.63642756,16.443774 L8.7965674,7.74379866 L7.74321016,13.4077123 L7.74321016,13.4077123 L14.3300264,10.3716505 C13.5566755,7.56520679 10.5832746,4.93735499 6.99652654,5.0011378 C2.98310209,5.06492061 0.196372163,8.03719959 0.00970125808,11.2390967 C-0.110301466,13.2291204 0.889721236,15.0022825 2.63642756,16.443774 Z M11.7966355,12.4382135 L5.63649566,21.1381889 L6.68985291,15.4742753 L6.68985291,15.4742753 L0.10303671,18.5103371 C0.8763876,21.3167808 3.84978844,23.9446326 7.43653653,23.8808498 C11.449961,23.817067 14.2366909,20.844788 14.4233618,17.6428909 C14.5433645,15.6528672 13.5300082,13.8797051 11.7966355,12.4382135 Z M48.6641391,21.2019717 L48.6641391,15.4104925 L42.9706766,15.4104925 L42.9706766,21.2019717 L40.3839512,21.2019717 L40.3839512,7.68001585 L42.9706766,7.68001585 L42.9706766,13.2418769 L48.6641391,13.2418769 L48.6641391,7.68001585 L51.2241973,7.68001585 L51.2241973,21.2019717 L48.6641391,21.2019717 Z M66.4645432,14.4792635 C66.4645432,18.2041796 64.3711624,21.4315898 59.9843961,21.4315898 C55.5976299,21.4315898 53.4775817,18.2041796 53.4775817,14.4792635 C53.4775817,10.6905645 56.1176417,7.45039773 59.9843961,7.45039773 C63.8378169,7.45039773 66.4645432,10.6905645 66.4645432,14.4792635 Z M56.0643071,14.4409938 C56.0643071,17.0943587 57.4110044,19.1226521 59.9843961,19.1226521 C62.5444542,19.1226521 63.9044851,17.1326284 63.9044851,14.4537504 C63.9044851,11.9407076 62.517787,9.68274291 59.9843961,9.68274291 C57.4643389,9.67003954 56.0643071,11.9534642 56.0643071,14.4409938 L56.0643071,14.4409938 Z M74.131384,7.68001585 C76.9981157,7.68001585 78.9581602,9.21080331 78.9581602,12.0300035 C78.9581602,14.9129866 76.731443,16.4182609 73.8647112,16.4182609 L71.2779858,16.4182609 L71.2779858,21.2019717 L68.6912605,21.2019717 L68.6912605,7.68001585 L74.131384,7.68001585 Z M71.2913195,14.1348363 L73.5313703,14.1348363 C75.4514139,14.1348363 76.3981021,13.3184163 76.3981021,11.9917339 C76.3981021,10.7543473 75.7980885,9.95068391 73.8780449,9.95068391 L71.2913195,9.95068391 L71.2913195,14.1348363 Z M154.86655,7.68001585 C157.666614,7.68001585 159.546656,9.13426393 159.546656,11.8896814 C159.546656,14.4409938 157.786616,15.5253016 155.933241,15.8697287 L160,21.2019717 L156.77326,21.2019717 L152.95984,15.9335116 L151.519807,15.9335116 L151.519807,21.2019717 L148.933082,21.2019717 L148.933082,7.68001585 L154.86655,7.68001585 Z M151.519807,13.7393829 L154.266537,13.7393829 C155.999909,13.7393829 156.986598,13.1015548 156.986598,11.813142 C156.986598,10.5757555 156.279916,9.93792735 154.519876,9.93792735 L151.506474,9.93792735 L151.519807,13.7393829 Z M86.9983427,7.68001585 C89.7984063,7.68001585 91.678449,9.13426393 91.678449,11.8896814 C91.678449,14.4409938 89.918409,15.5253016 88.0650336,15.8697287 L92.1317926,21.2019717 L88.9050527,21.2019717 L85.0916328,15.920755 L83.6516001,15.920755 L83.6516001,21.2019717 L81.0648747,21.2019717 L81.0648747,7.68001585 L86.9983427,7.68001585 Z M83.6516001,13.7393829 L86.3983291,13.7393829 C88.1317018,13.7393829 89.1183909,13.1015548 89.1183909,11.813142 C89.1183909,10.5757555 88.4117081,9.93792735 86.6516682,9.93792735 L83.6382664,9.93792735 L83.6382664,13.7393829 L83.6516001,13.7393829 Z M104.718745,16.2141559 C104.718745,19.211948 102.945371,21.4315898 99.225287,21.4315898 C95.5052025,21.4315898 93.6518271,19.211948 93.6518271,16.2141559 L93.6518271,7.68001585 L96.2385525,7.68001585 L96.2385525,16.0865903 C96.2385525,17.9235353 97.1452397,19.1354087 99.225287,19.1354087 C101.305334,19.1354087 102.158687,17.9235353 102.158687,16.0865903 L102.158687,7.68001585 L104.718745,7.68001585 L104.718745,16.2141559 Z M115.37232,21.2019717 L110.065533,9.96344047 L110.025532,9.96344047 L110.025532,21.2019717 L107.438807,21.2019717 L107.438807,7.68001585 L111.678903,7.68001585 L117.012357,18.9057905 L117.052358,18.9057905 L117.052358,7.68001585 L119.612416,7.68001585 L119.612416,21.2019717 L115.37232,21.2019717 Z M130.252658,21.2019717 L124.945871,9.96344047 L124.90587,9.96344047 L124.90587,21.2019717 L122.319145,21.2019717 L122.319145,7.68001585 L126.559241,7.68001585 L131.892695,18.9057905 L131.932696,18.9057905 L131.932696,7.68001585 L134.492754,7.68001585 L134.492754,21.2019717 L130.252658,21.2019717 Z M139.799541,9.93792735 L139.799541,13.3439294 L145.799678,13.3439294 L145.799678,15.4615188 L139.799541,15.4615188 L139.799541,18.9185471 L146.226354,18.9185471 L146.226354,21.2019717 L137.22615,21.2019717 L137.22615,7.68001585 L146.226354,7.68001585 L146.226354,9.93792735 L139.799541,9.93792735 Z M33.7704677,13.356686 C31.7970896,12.7698841 30.8770687,12.1575692 30.8237341,11.2773664 C30.8237341,10.4864595 31.5837514,9.64452642 33.0904523,9.64452642 C34.4371495,9.64452642 35.6905113,10.5629989 36.543864,11.7238461 L36.6638667,11.7238461 L37.717224,9.6190133 C36.8905385,8.66227113 35.370504,7.45039773 33.0371177,7.45039773 C30.3570569,7.45039773 28.2503424,9.18529018 28.3570115,11.2901229 C28.4636805,13.4714951 30.0770505,14.581316 32.5304395,15.3339531 C34.5171513,15.9462681 35.6505104,16.3672347 35.4638395,17.7066737 C35.2638349,19.1609218 31.9970941,20.4748477 29.5037042,16.8647406 L29.3837014,16.8647406 L28.2236751,19.1864349 C29.4637033,20.6024133 31.2904114,21.4188333 33.210455,21.4315898 C35.7705131,21.4315898 37.8372267,19.8880458 38.0372312,17.6811606 C38.2772367,15.3849794 36.2638576,14.0965666 33.7704677,13.356686 Z"></path>
</svg>
